<?xml version="1.0" encoding="utf-8"?>
<!-- Generator: Adobe Illustrator 17.0.0, SVG Export Plug-In . SVG Version: 6.00 Build 0)  -->
<!DOCTYPE svg PUBLIC "-//W3C//DTD SVG 1.1//EN" "http://www.w3.org/Graphics/SVG/1.1/DTD/svg11.dtd">
<svg version="1.1" id="Слой_1" xmlns="http://www.w3.org/2000/svg" xmlns:xlink="http://www.w3.org/1999/xlink" x="0px" y="0px"
	 width="67px" height="67px" viewBox="0 0 67 67" enable-background="new 0 0 67 67" xml:space="preserve">
<path fill="#F6D445" class='mediumStar' d="M47.628,31.905c-0.458-0.21-1.112-0.467-1.897-0.696c-0.785-0.23-1.7-0.435-2.682-0.571
	c-0.422-0.06-0.858-0.104-1.3-0.138c-0.034-0.441-0.078-0.877-0.138-1.3c-0.136-0.981-0.341-1.897-0.571-2.682
	c-0.229-0.785-0.487-1.439-0.696-1.897c-0.207-0.458-0.369-0.719-0.369-0.719s-0.162,0.262-0.369,0.719
	c-0.21,0.458-0.467,1.112-0.696,1.897c-0.23,0.785-0.435,1.7-0.571,2.682c-0.06,0.421-0.104,0.856-0.138,1.297
	c-0.441,0.033-0.877,0.077-1.3,0.137c-0.491,0.068-0.965,0.152-1.414,0.249c-0.45,0.094-0.875,0.21-1.267,0.321
	c-0.392,0.117-0.752,0.237-1.071,0.357c-0.319,0.121-0.597,0.236-0.826,0.343c-0.458,0.208-0.719,0.371-0.719,0.371
	s0.262,0.163,0.719,0.371c0.229,0.106,0.507,0.222,0.826,0.343c0.319,0.12,0.679,0.24,1.071,0.357
	c0.392,0.111,0.818,0.227,1.267,0.321c0.45,0.097,0.924,0.181,1.414,0.249c0.421,0.06,0.856,0.103,1.297,0.137
	c0.033,0.44,0.077,0.875,0.137,1.297c0.068,0.491,0.152,0.965,0.249,1.414c0.094,0.45,0.21,0.875,0.321,1.267
	c0.117,0.392,0.237,0.752,0.357,1.071c0.121,0.319,0.236,0.597,0.343,0.826c0.208,0.458,0.371,0.719,0.371,0.719
	s0.163-0.262,0.371-0.719c0.106-0.229,0.222-0.507,0.343-0.826c0.12-0.319,0.24-0.679,0.357-1.071
	c0.111-0.392,0.227-0.818,0.321-1.267c0.097-0.45,0.181-0.924,0.249-1.414c0.06-0.423,0.104-0.859,0.137-1.3
	c0.44-0.034,0.875-0.078,1.297-0.138c0.981-0.136,1.897-0.341,2.682-0.571c0.785-0.229,1.439-0.487,1.897-0.696
	c0.458-0.207,0.719-0.369,0.719-0.369S48.086,32.113,47.628,31.905z"/>
<path fill="#F6D445" class='topStar' d="M56.49,12.649c-0.07-0.053-0.173-0.144-0.304-0.233c-0.262-0.185-0.635-0.413-1.084-0.615
	c-0.448-0.203-0.972-0.384-1.532-0.504c-0.086-0.019-0.175-0.034-0.262-0.05c-0.016-0.088-0.031-0.176-0.05-0.262
	c-0.12-0.561-0.301-1.084-0.504-1.532c-0.202-0.448-0.43-0.822-0.615-1.084c-0.089-0.131-0.18-0.234-0.233-0.304
	c-0.057-0.07-0.093-0.107-0.093-0.107s-0.036,0.037-0.093,0.107c-0.053,0.07-0.144,0.173-0.233,0.304
	c-0.185,0.262-0.412,0.635-0.615,1.084c-0.203,0.448-0.384,0.972-0.504,1.532c-0.019,0.085-0.033,0.172-0.049,0.258
	c-0.088,0.016-0.177,0.03-0.263,0.049c-0.28,0.06-0.551,0.134-0.808,0.22c-0.257,0.083-0.5,0.186-0.724,0.284
	c-0.224,0.103-0.43,0.209-0.612,0.315c-0.182,0.106-0.341,0.209-0.472,0.303c-0.131,0.089-0.234,0.181-0.304,0.234
	c-0.07,0.057-0.107,0.094-0.107,0.094s0.037,0.037,0.107,0.094c0.07,0.053,0.173,0.145,0.304,0.234
	c0.131,0.094,0.29,0.196,0.472,0.303c0.182,0.106,0.388,0.212,0.612,0.315c0.224,0.098,0.467,0.2,0.724,0.284
	c0.257,0.085,0.528,0.16,0.808,0.22c0.085,0.019,0.173,0.033,0.259,0.049c0.016,0.087,0.03,0.174,0.049,0.259
	c0.06,0.28,0.134,0.551,0.22,0.808c0.083,0.257,0.186,0.5,0.284,0.724c0.103,0.224,0.209,0.43,0.315,0.612
	c0.106,0.182,0.209,0.341,0.303,0.472c0.089,0.131,0.181,0.234,0.234,0.304c0.057,0.07,0.094,0.107,0.094,0.107
	s0.037-0.037,0.094-0.107c0.053-0.07,0.145-0.173,0.234-0.304c0.094-0.131,0.196-0.29,0.303-0.472
	c0.106-0.182,0.212-0.388,0.315-0.612c0.098-0.224,0.2-0.467,0.284-0.724c0.085-0.257,0.159-0.528,0.22-0.808
	c0.019-0.086,0.033-0.175,0.049-0.263c0.086-0.016,0.174-0.03,0.258-0.049c0.561-0.12,1.084-0.301,1.532-0.504
	c0.448-0.202,0.822-0.43,1.084-0.615c0.131-0.089,0.234-0.18,0.304-0.233c0.07-0.057,0.107-0.093,0.107-0.093
	S56.56,12.705,56.49,12.649z"/>
<path fill="#F6D445" class='bottomStar' d="M59.542,52.355c-0.074-0.056-0.182-0.152-0.32-0.245c-0.276-0.195-0.669-0.435-1.142-0.648
	c-0.473-0.214-1.024-0.405-1.614-0.531c-0.091-0.02-0.184-0.035-0.276-0.052c-0.017-0.092-0.032-0.186-0.052-0.276
	c-0.126-0.591-0.317-1.142-0.531-1.614c-0.213-0.473-0.453-0.866-0.648-1.142c-0.093-0.138-0.19-0.246-0.245-0.32
	c-0.06-0.074-0.098-0.113-0.098-0.113s-0.038,0.039-0.098,0.113c-0.056,0.074-0.152,0.182-0.245,0.32
	c-0.195,0.276-0.435,0.669-0.648,1.142c-0.214,0.473-0.405,1.024-0.531,1.614c-0.02,0.089-0.035,0.181-0.051,0.272
	c-0.093,0.017-0.186,0.032-0.277,0.052c-0.295,0.064-0.581,0.142-0.852,0.232c-0.271,0.088-0.527,0.195-0.763,0.299
	c-0.236,0.109-0.453,0.22-0.645,0.332c-0.192,0.112-0.359,0.22-0.497,0.319c-0.138,0.094-0.246,0.191-0.32,0.247
	c-0.074,0.06-0.113,0.099-0.113,0.099s0.039,0.039,0.113,0.099c0.074,0.056,0.182,0.152,0.32,0.247
	c0.138,0.099,0.305,0.207,0.497,0.319c0.192,0.112,0.409,0.223,0.645,0.332c0.236,0.104,0.492,0.211,0.763,0.299
	c0.271,0.09,0.556,0.168,0.852,0.232c0.09,0.02,0.182,0.035,0.273,0.051c0.017,0.091,0.032,0.183,0.051,0.273
	c0.064,0.295,0.142,0.581,0.232,0.852c0.088,0.271,0.195,0.527,0.299,0.763c0.109,0.236,0.22,0.453,0.332,0.645
	c0.112,0.192,0.22,0.359,0.319,0.497c0.094,0.138,0.19,0.246,0.247,0.32c0.06,0.074,0.099,0.113,0.099,0.113
	s0.039-0.039,0.099-0.113c0.056-0.074,0.152-0.182,0.247-0.32c0.099-0.138,0.207-0.305,0.319-0.497
	c0.112-0.192,0.223-0.409,0.332-0.645c0.104-0.236,0.211-0.492,0.299-0.763c0.09-0.271,0.168-0.556,0.232-0.852
	c0.02-0.091,0.035-0.184,0.052-0.277c0.091-0.017,0.183-0.032,0.272-0.051c0.591-0.126,1.142-0.317,1.614-0.531
	c0.473-0.213,0.866-0.453,1.142-0.648c0.138-0.093,0.246-0.189,0.32-0.245c0.074-0.06,0.113-0.098,0.113-0.098
	S59.616,52.415,59.542,52.355z"/>
<g>
	<path fill="#F6D445" d="M33.484,1c3.631,0,7.123,0.596,10.384,1.695C31.011,7.027,21.751,19.182,21.751,33.5
		c0,14.318,9.259,26.473,22.116,30.805C40.607,65.404,37.115,66,33.484,66c-17.949,0-32.5-14.551-32.5-32.5S15.534,1,33.484,1z"/>
</g>
<path fill="#F6D445" d="M33.485,1.001c0.991,0,1.972,0.044,2.939,0.132C19.859,2.625,6.878,16.546,6.878,33.5
	c0,16.957,12.986,30.88,29.556,32.368c-0.97,0.087-1.955,0.132-2.949,0.132c-17.95,0-32.501-14.55-32.501-32.499
	S15.535,1.001,33.485,1.001z"/>
<path opacity="0.1" d="M33.485,1.001c0.991,0,1.972,0.044,2.939,0.132C19.86,2.625,6.878,16.546,6.878,33.5
	c0,16.957,12.986,30.88,29.556,32.368c-0.97,0.087-1.955,0.132-2.949,0.132c-17.95,0-32.501-14.55-32.501-32.499
	S15.535,1.001,33.485,1.001z"/>
</svg>
